<mxfile host="app.diagrams.net" agent="Mozilla/5.0 (Windows NT 10.0; Win64; x64) AppleWebKit/537.36 (KHTML, like Gecko) Chrome/138.0.0.0 Safari/537.36" version="24.8.4">
  <diagram name="Page-1" id="VBQ5IXRL1BcFniVTvNC8">
    <mxGraphModel dx="1434" dy="752" grid="1" gridSize="10" guides="1" tooltips="1" connect="1" arrows="1" fold="1" page="1" pageScale="1" pageWidth="850" pageHeight="1100" math="0" shadow="0">
      <root>
        <mxCell id="0" />
        <mxCell id="1" parent="0" />
        <mxCell id="lXsfsq_dGcord2VQgJSh-3" style="edgeStyle=orthogonalEdgeStyle;rounded=0;orthogonalLoop=1;jettySize=auto;html=1;" edge="1" parent="1" source="lXsfsq_dGcord2VQgJSh-1" target="lXsfsq_dGcord2VQgJSh-2">
          <mxGeometry relative="1" as="geometry" />
        </mxCell>
        <mxCell id="lXsfsq_dGcord2VQgJSh-1" value="Player enters queue" style="rounded=1;whiteSpace=wrap;html=1;" vertex="1" parent="1">
          <mxGeometry x="170" y="50" width="120" height="60" as="geometry" />
        </mxCell>
        <mxCell id="lXsfsq_dGcord2VQgJSh-12" style="edgeStyle=orthogonalEdgeStyle;rounded=0;orthogonalLoop=1;jettySize=auto;html=1;" edge="1" parent="1" source="lXsfsq_dGcord2VQgJSh-2" target="lXsfsq_dGcord2VQgJSh-9">
          <mxGeometry relative="1" as="geometry" />
        </mxCell>
        <mxCell id="lXsfsq_dGcord2VQgJSh-2" value="Trigger handshake method" style="rounded=1;whiteSpace=wrap;html=1;" vertex="1" parent="1">
          <mxGeometry x="170" y="150" width="120" height="60" as="geometry" />
        </mxCell>
        <mxCell id="lXsfsq_dGcord2VQgJSh-14" style="edgeStyle=orthogonalEdgeStyle;rounded=0;orthogonalLoop=1;jettySize=auto;html=1;" edge="1" parent="1" source="lXsfsq_dGcord2VQgJSh-9" target="lXsfsq_dGcord2VQgJSh-13">
          <mxGeometry relative="1" as="geometry" />
        </mxCell>
        <mxCell id="lXsfsq_dGcord2VQgJSh-15" value="Yes" style="edgeLabel;html=1;align=center;verticalAlign=middle;resizable=0;points=[];" vertex="1" connectable="0" parent="lXsfsq_dGcord2VQgJSh-14">
          <mxGeometry x="0.225" relative="1" as="geometry">
            <mxPoint as="offset" />
          </mxGeometry>
        </mxCell>
        <mxCell id="lXsfsq_dGcord2VQgJSh-17" style="edgeStyle=orthogonalEdgeStyle;rounded=0;orthogonalLoop=1;jettySize=auto;html=1;" edge="1" parent="1" source="lXsfsq_dGcord2VQgJSh-9" target="lXsfsq_dGcord2VQgJSh-16">
          <mxGeometry relative="1" as="geometry" />
        </mxCell>
        <mxCell id="lXsfsq_dGcord2VQgJSh-18" value="No" style="edgeLabel;html=1;align=center;verticalAlign=middle;resizable=0;points=[];" vertex="1" connectable="0" parent="lXsfsq_dGcord2VQgJSh-17">
          <mxGeometry x="0.3625" y="3" relative="1" as="geometry">
            <mxPoint as="offset" />
          </mxGeometry>
        </mxCell>
        <mxCell id="lXsfsq_dGcord2VQgJSh-9" value="Is &quot;sender&quot; equal to own PID?" style="ellipse;whiteSpace=wrap;html=1;" vertex="1" parent="1">
          <mxGeometry x="170" y="250" width="120" height="80" as="geometry" />
        </mxCell>
        <mxCell id="lXsfsq_dGcord2VQgJSh-13" value="Do nothing" style="rounded=1;whiteSpace=wrap;html=1;" vertex="1" parent="1">
          <mxGeometry x="100" y="380" width="120" height="60" as="geometry" />
        </mxCell>
        <mxCell id="lXsfsq_dGcord2VQgJSh-16" value="- Publish start_game method in queue channel&lt;div&gt;- Set &quot;name&quot; as other player&#39;s name&lt;/div&gt;" style="rounded=1;whiteSpace=wrap;html=1;" vertex="1" parent="1">
          <mxGeometry x="240" y="380" width="120" height="100" as="geometry" />
        </mxCell>
        <mxCell id="lXsfsq_dGcord2VQgJSh-21" style="edgeStyle=orthogonalEdgeStyle;rounded=0;orthogonalLoop=1;jettySize=auto;html=1;" edge="1" parent="1" source="lXsfsq_dGcord2VQgJSh-19" target="lXsfsq_dGcord2VQgJSh-20">
          <mxGeometry relative="1" as="geometry" />
        </mxCell>
        <mxCell id="lXsfsq_dGcord2VQgJSh-19" value="start_game method triggered" style="rounded=1;whiteSpace=wrap;html=1;" vertex="1" parent="1">
          <mxGeometry x="560" y="40" width="120" height="60" as="geometry" />
        </mxCell>
        <mxCell id="lXsfsq_dGcord2VQgJSh-23" style="edgeStyle=orthogonalEdgeStyle;rounded=0;orthogonalLoop=1;jettySize=auto;html=1;" edge="1" parent="1" source="lXsfsq_dGcord2VQgJSh-20" target="lXsfsq_dGcord2VQgJSh-22">
          <mxGeometry relative="1" as="geometry" />
        </mxCell>
        <mxCell id="lXsfsq_dGcord2VQgJSh-20" value="- Unsubscribe from queue channel&lt;div&gt;- Subscribe to match channel&lt;/div&gt;" style="rounded=1;whiteSpace=wrap;html=1;" vertex="1" parent="1">
          <mxGeometry x="560" y="140" width="120" height="80" as="geometry" />
        </mxCell>
        <mxCell id="lXsfsq_dGcord2VQgJSh-27" style="edgeStyle=orthogonalEdgeStyle;rounded=0;orthogonalLoop=1;jettySize=auto;html=1;" edge="1" parent="1" source="lXsfsq_dGcord2VQgJSh-22" target="lXsfsq_dGcord2VQgJSh-24">
          <mxGeometry relative="1" as="geometry" />
        </mxCell>
        <mxCell id="lXsfsq_dGcord2VQgJSh-28" value="Yes" style="edgeLabel;html=1;align=center;verticalAlign=middle;resizable=0;points=[];" vertex="1" connectable="0" parent="lXsfsq_dGcord2VQgJSh-27">
          <mxGeometry x="0.02" y="2" relative="1" as="geometry">
            <mxPoint as="offset" />
          </mxGeometry>
        </mxCell>
        <mxCell id="lXsfsq_dGcord2VQgJSh-30" style="edgeStyle=orthogonalEdgeStyle;rounded=0;orthogonalLoop=1;jettySize=auto;html=1;" edge="1" parent="1" source="lXsfsq_dGcord2VQgJSh-22" target="lXsfsq_dGcord2VQgJSh-29">
          <mxGeometry relative="1" as="geometry" />
        </mxCell>
        <mxCell id="lXsfsq_dGcord2VQgJSh-22" value="Is &quot;sender&quot; equal to own PID?" style="rounded=1;whiteSpace=wrap;html=1;shape=ellipse;perimeter=ellipsePerimeter;" vertex="1" parent="1">
          <mxGeometry x="560" y="250" width="120" height="80" as="geometry" />
        </mxCell>
        <mxCell id="lXsfsq_dGcord2VQgJSh-24" value="Assign X to the player" style="rounded=1;whiteSpace=wrap;html=1;" vertex="1" parent="1">
          <mxGeometry x="480" y="380" width="120" height="60" as="geometry" />
        </mxCell>
        <mxCell id="lXsfsq_dGcord2VQgJSh-29" value="- Assign O to the player&lt;br&gt;- Assign other player&#39;s name&lt;br&gt;- Publish start_turn with player = X" style="rounded=1;whiteSpace=wrap;html=1;" vertex="1" parent="1">
          <mxGeometry x="630" y="380" width="120" height="100" as="geometry" />
        </mxCell>
      </root>
    </mxGraphModel>
  </diagram>
</mxfile>
